<?xml version="1.0" encoding="UTF-8" standalone="no"?>
<svg
   xmlns:dc="http://purl.org/dc/elements/1.1/"
   xmlns:cc="http://creativecommons.org/ns#"
   xmlns:rdf="http://www.w3.org/1999/02/22-rdf-syntax-ns#"
   xmlns:svg="http://www.w3.org/2000/svg"
   xmlns="http://www.w3.org/2000/svg"
   xmlns:sodipodi="http://sodipodi.sourceforge.net/DTD/sodipodi-0.dtd"
   xmlns:inkscape="http://www.inkscape.org/namespaces/inkscape"
   height="36"
   version="1.1"
   viewBox="0 0 36 36"
   width="36"
   id="svg74"
   sodipodi:docname="page-w-32.svg"
   inkscape:version="0.92.2 (unknown)">
  <metadata
     id="metadata78">
    <rdf:RDF>
      <cc:Work
         rdf:about="">
        <dc:format>image/svg+xml</dc:format>
        <dc:type
           rdf:resource="http://purl.org/dc/dcmitype/StillImage" />
        <dc:title></dc:title>
      </cc:Work>
    </rdf:RDF>
  </metadata>
  <sodipodi:namedview
     pagecolor="#ffffff"
     bordercolor="#666666"
     borderopacity="1"
     objecttolerance="10"
     gridtolerance="10"
     guidetolerance="10"
     inkscape:pageopacity="0"
     inkscape:pageshadow="2"
     inkscape:window-width="1920"
     inkscape:window-height="1176"
     id="namedview76"
     showgrid="false"
     inkscape:zoom="12.083333"
     inkscape:cx="5.1152124"
     inkscape:cy="23.113665"
     inkscape:window-x="1920"
     inkscape:window-y="24"
     inkscape:window-maximized="1"
     inkscape:current-layer="svg74" />
  <desc
     id="desc66" />
  <defs
     id="defs68" />
  <g
     id="Page-1"
     style="fill:none;fill-rule:evenodd;stroke:none;stroke-width:1"
     transform="matrix(1.6578081,0,0,1.6578081,1.421919,-0.07010829)">
    <g
       id="Icons-Device"
       transform="translate(-86,1)"
       style="fill:#000000">
      <g
         id="add-alarm"
         transform="translate(86)">
        <path
           d="M 5.9,1.4 4.6,-0.1 0,3.7 1.3,5.2 Z M 20,3.7 15.4,-0.2 14.1,1.3 18.7,5.2 Z M 10,2 c -5,0 -9,4 -9,9 0,5 4,9 9,9 5,0 9,-4 9,-9 0,-5 -4,-9 -9,-9 z m 0,16 C 6.1,18 3,14.9 3,11 3,7.1 6.1,4 10,4 c 3.9,0 7,3.1 7,7 0,3.9 -3.1,7 -7,7 z M 11,7 H 9 v 3 H 6 v 2 h 3 v 3 h 2 v -3 h 3 v -2 h -3 z"
           id="Shape"
           inkscape:connector-curvature="0" />
      </g>
    </g>
  </g>
</svg>
