<?xml version="1.0" encoding="UTF-8" standalone="no"?>
<svg
   xmlns:dc="http://purl.org/dc/elements/1.1/"
   xmlns:cc="http://creativecommons.org/ns#"
   xmlns:rdf="http://www.w3.org/1999/02/22-rdf-syntax-ns#"
   xmlns:svg="http://www.w3.org/2000/svg"
   xmlns="http://www.w3.org/2000/svg"
   xmlns:sodipodi="http://sodipodi.sourceforge.net/DTD/sodipodi-0.dtd"
   xmlns:inkscape="http://www.inkscape.org/namespaces/inkscape"
   height="19"
   version="1.1"
   viewBox="0 0 19 19"
   width="19"
   id="svg74"
   sodipodi:docname="pageaction-warning-red-19.svg"
   inkscape:version="0.92.4 5da689c313, 2019-01-14">
  <metadata
     id="metadata78">
    <rdf:RDF>
      <cc:Work
         rdf:about="">
        <dc:format>image/svg+xml</dc:format>
        <dc:type
           rdf:resource="http://purl.org/dc/dcmitype/StillImage" />
        <dc:title />
      </cc:Work>
    </rdf:RDF>
  </metadata>
  <sodipodi:namedview
     pagecolor="#ffffff"
     bordercolor="#666666"
     borderopacity="1"
     objecttolerance="10"
     gridtolerance="10"
     guidetolerance="10"
     inkscape:pageopacity="0"
     inkscape:pageshadow="2"
     inkscape:window-width="1916"
     inkscape:window-height="1029"
     id="namedview76"
     showgrid="false"
     inkscape:zoom="16"
     inkscape:cx="6.139102"
     inkscape:cy="-0.026407977"
     inkscape:window-x="0"
     inkscape:window-y="24"
     inkscape:window-maximized="0"
     inkscape:current-layer="svg74" />
  <desc
     id="desc66" />
  <defs
     id="defs68" />
  <path
     style="display:inline;fill:#d90000;fill-opacity:1;fill-rule:evenodd;stroke:none;stroke-width:0.91332924"
     d="M 14.431997,0.28850865 13.24437,1.6586192 17.44644,5.2205076 18.633071,3.8503972 Z M 4.5680026,0.38025257 0.3669299,3.8504026 1.553561,5.220513 5.7556309,1.7503631 Z M 9.5,2.297811 c -4.5666469,0 -8.2196634,3.6540134 -8.2196634,8.220659 0,4.566646 3.6530171,8.219665 8.2196634,8.219665 4.566647,0 8.219664,-3.653019 8.219664,-8.219665 0,-4.5666467 -3.653017,-8.220659 -8.219664,-8.220659 z m 0,1.8268124 c 3.561986,0 6.392851,2.8318619 6.392851,6.3938466 0,3.561985 -2.830865,6.392849 -6.392851,6.392849 -3.5619846,0 -6.3928499,-2.830864 -6.3928499,-6.392849 0,-3.5619847 2.8308653,-6.3938466 6.3928499,-6.3938466 z M 8.586594,5.8437417 v 6.2851553 h 1.826814 V 5.8437417 Z m 0,7.6752103 v 1.673249 h 1.826814 v -1.673249 z"
     id="path4625"
     inkscape:connector-curvature="0" />
</svg>
