<?xml version="1.0" encoding="UTF-8" standalone="no"?>
<!-- This Source Code Form is subject to the terms of the Mozilla Public
   - License, v. 2.0. If a copy of the MPL was not distributed with this
   - file, You can obtain one at http://mozilla.org/MPL/2.0/. -->

<svg
   xmlns:dc="http://purl.org/dc/elements/1.1/"
   xmlns:cc="http://creativecommons.org/ns#"
   xmlns:rdf="http://www.w3.org/1999/02/22-rdf-syntax-ns#"
   xmlns:svg="http://www.w3.org/2000/svg"
   xmlns="http://www.w3.org/2000/svg"
   xmlns:sodipodi="http://sodipodi.sourceforge.net/DTD/sodipodi-0.dtd"
   xmlns:inkscape="http://www.inkscape.org/namespaces/inkscape"
   width="16"
   height="16"
   viewBox="0 0 16 16"
   version="1.1"
   id="svg12"
   sodipodi:docname="deletes-history-icon-16.svg"
   inkscape:version="0.92.2 (unknown)">
  <metadata
     id="metadata18">
    <rdf:RDF>
      <cc:Work
         rdf:about="">
        <dc:format>image/svg+xml</dc:format>
        <dc:type
           rdf:resource="http://purl.org/dc/dcmitype/StillImage" />
      </cc:Work>
    </rdf:RDF>
  </metadata>
  <defs
     id="defs16" />
  <sodipodi:namedview
     pagecolor="#ffffff"
     bordercolor="#666666"
     borderopacity="1"
     objecttolerance="10"
     gridtolerance="10"
     guidetolerance="10"
     inkscape:pageopacity="0"
     inkscape:pageshadow="2"
     inkscape:window-width="1920"
     inkscape:window-height="1056"
     id="namedview14"
     showgrid="false"
     inkscape:zoom="31.71875"
     inkscape:cx="7.5600583"
     inkscape:cy="5.3768332"
     inkscape:window-x="0"
     inkscape:window-y="144"
     inkscape:window-maximized="1"
     inkscape:current-layer="svg12" />
  <path
     fill="context-fill"
     fill-opacity="context-fill-opacity"
     d="M12.408 11.992c-1.663 0-2.813-2-4.408-2s-2.844 2-4.408 2C1.54 11.992.025 10.048 0 6.719c-.015-2.068.6-2.727 3.265-2.727S6.709 5.082 8 5.082s2.071-1.091 4.735-1.091 3.28.66 3.265 2.727c-.025 3.33-1.54 5.274-3.592 5.274zM4.572 6.537c-1.619.07-2.286 1.035-2.286 1.273s1.073.909 2.122.909 2.286-.384 2.286-.727a1.9 1.9 0 0 0-2.122-1.455zm6.857 0a1.9 1.9 0 0 0-2.123 1.455c0 .343 1.236.727 2.286.727s2.122-.671 2.122-.909-.667-1.203-2.286-1.273z"
     id="path10"
     style="fill:#000000;fill-opacity:1" />
</svg>
