<?xml version="1.0" encoding="UTF-8" standalone="no"?>
<svg
   xmlns:dc="http://purl.org/dc/elements/1.1/"
   xmlns:cc="http://creativecommons.org/ns#"
   xmlns:rdf="http://www.w3.org/1999/02/22-rdf-syntax-ns#"
   xmlns:svg="http://www.w3.org/2000/svg"
   xmlns="http://www.w3.org/2000/svg"
   xmlns:sodipodi="http://sodipodi.sourceforge.net/DTD/sodipodi-0.dtd"
   xmlns:inkscape="http://www.inkscape.org/namespaces/inkscape"
   height="32"
   version="1.1"
   viewBox="0 0 32 32"
   width="32"
   id="svg74"
   sodipodi:docname="page-32.svg"
   inkscape:version="0.92.2 (unknown)"
   inkscape:export-filename="/home/user/src/tmpcontainers/icons/tmpcontainer-48.png"
   inkscape:export-xdpi="96"
   inkscape:export-ydpi="96">
  <metadata
     id="metadata78">
    <rdf:RDF>
      <cc:Work
         rdf:about="">
        <dc:format>image/svg+xml</dc:format>
        <dc:type
           rdf:resource="http://purl.org/dc/dcmitype/StillImage" />
        <dc:title></dc:title>
      </cc:Work>
    </rdf:RDF>
  </metadata>
  <sodipodi:namedview
     pagecolor="#ffffff"
     bordercolor="#666666"
     borderopacity="1"
     objecttolerance="10"
     gridtolerance="10"
     guidetolerance="10"
     inkscape:pageopacity="0"
     inkscape:pageshadow="2"
     inkscape:window-width="1920"
     inkscape:window-height="1176"
     id="namedview76"
     showgrid="false"
     inkscape:zoom="12.083333"
     inkscape:cx="19.804868"
     inkscape:cy="23.113665"
     inkscape:window-x="1920"
     inkscape:window-y="24"
     inkscape:window-maximized="1"
     inkscape:current-layer="svg74" />
  <desc
     id="desc66" />
  <defs
     id="defs68" />
  <g
     id="Page-1"
     style="fill:#ff613d;fill-opacity:1;fill-rule:evenodd;stroke:none;stroke-width:1"
     transform="matrix(1.5119654,0,0,1.5119654,0.88034602,-0.48042293)">
    <g
       id="Icons-Device"
       transform="translate(-86,1)"
       style="fill:#ff613d;fill-opacity:1">
      <g
         id="add-alarm"
         transform="translate(86)"
         style="fill:#ff613d;fill-opacity:1">
        <path
           d="m 10,0.22301009 c -5.3761057,0 -9.67699003,4.30088431 -9.67699003,9.67698981 0,5.3761061 4.30088433,9.6769901 9.67699003,9.6769901 5.376105,0 9.67699,-4.300884 9.67699,-9.6769901 C 19.67699,4.5238944 15.376105,0.22301009 10,0.22301009 Z M 10,17.426548 c -4.1933625,0 -7.5265479,-3.333186 -7.5265479,-7.5265481 0,-4.1933622 3.3331854,-7.5265477 7.5265479,-7.5265477 4.193362,0 7.526548,3.3331855 7.526548,7.5265477 0,4.1933621 -3.333186,7.5265481 -7.526548,7.5265481 z M 11.075221,5.5991156 H 8.9247787 V 8.8247789 H 5.6991154 v 2.1504421 h 3.2256633 v 3.225663 h 2.1504423 v -3.225663 h 3.225663 V 8.8247789 h -3.225663 z"
           id="Shape"
           inkscape:connector-curvature="0"
           style="fill:#ff613d;fill-opacity:1;stroke-width:1.07522106"
           sodipodi:nodetypes="ssssssssssccccccccccccc" />
      </g>
    </g>
  </g>
</svg>
